<mxfile host="app.diagrams.net" agent="Mozilla/5.0 (Windows NT 10.0; Win64; x64) AppleWebKit/537.36 (KHTML, like Gecko) Chrome/135.0.0.0 Safari/537.36 Edg/135.0.0.0" version="26.2.14">
  <diagram name="Page-1" id="BV2Toivya-iVQfulzFhg">
    <mxGraphModel dx="1722" dy="653" grid="1" gridSize="10" guides="1" tooltips="1" connect="1" arrows="1" fold="1" page="1" pageScale="1" pageWidth="850" pageHeight="1100" math="0" shadow="0">
      <root>
        <mxCell id="0" />
        <mxCell id="1" parent="0" />
        <mxCell id="wzGg7VeKgRd6MsMGrwRr-4" style="edgeStyle=orthogonalEdgeStyle;rounded=0;orthogonalLoop=1;jettySize=auto;html=1;exitX=0;exitY=0.5;exitDx=0;exitDy=0;" edge="1" parent="1" source="wzGg7VeKgRd6MsMGrwRr-2" target="wzGg7VeKgRd6MsMGrwRr-3">
          <mxGeometry relative="1" as="geometry" />
        </mxCell>
        <mxCell id="wzGg7VeKgRd6MsMGrwRr-2" value="Fibonacci(7)" style="rounded=1;whiteSpace=wrap;html=1;" vertex="1" parent="1">
          <mxGeometry x="365" y="60" width="120" height="60" as="geometry" />
        </mxCell>
        <mxCell id="wzGg7VeKgRd6MsMGrwRr-8" style="edgeStyle=orthogonalEdgeStyle;rounded=0;orthogonalLoop=1;jettySize=auto;html=1;exitX=1;exitY=0.5;exitDx=0;exitDy=0;entryX=0.5;entryY=0;entryDx=0;entryDy=0;" edge="1" parent="1" source="wzGg7VeKgRd6MsMGrwRr-3" target="wzGg7VeKgRd6MsMGrwRr-6">
          <mxGeometry relative="1" as="geometry" />
        </mxCell>
        <mxCell id="wzGg7VeKgRd6MsMGrwRr-9" style="edgeStyle=orthogonalEdgeStyle;rounded=0;orthogonalLoop=1;jettySize=auto;html=1;exitX=0;exitY=0.5;exitDx=0;exitDy=0;" edge="1" parent="1" source="wzGg7VeKgRd6MsMGrwRr-3" target="wzGg7VeKgRd6MsMGrwRr-5">
          <mxGeometry relative="1" as="geometry" />
        </mxCell>
        <mxCell id="wzGg7VeKgRd6MsMGrwRr-3" value="Fibonacci(6)" style="rounded=1;whiteSpace=wrap;html=1;" vertex="1" parent="1">
          <mxGeometry x="150" y="160" width="120" height="60" as="geometry" />
        </mxCell>
        <mxCell id="wzGg7VeKgRd6MsMGrwRr-20" style="edgeStyle=orthogonalEdgeStyle;rounded=0;orthogonalLoop=1;jettySize=auto;html=1;entryX=0.5;entryY=0;entryDx=0;entryDy=0;" edge="1" parent="1" source="wzGg7VeKgRd6MsMGrwRr-5" target="wzGg7VeKgRd6MsMGrwRr-12">
          <mxGeometry relative="1" as="geometry" />
        </mxCell>
        <mxCell id="wzGg7VeKgRd6MsMGrwRr-5" value="Fibonacci(5)" style="rounded=1;whiteSpace=wrap;html=1;" vertex="1" parent="1">
          <mxGeometry x="20" y="280" width="120" height="60" as="geometry" />
        </mxCell>
        <mxCell id="wzGg7VeKgRd6MsMGrwRr-26" style="edgeStyle=orthogonalEdgeStyle;rounded=0;orthogonalLoop=1;jettySize=auto;html=1;exitX=1;exitY=0.5;exitDx=0;exitDy=0;entryX=0.5;entryY=0;entryDx=0;entryDy=0;" edge="1" parent="1" source="wzGg7VeKgRd6MsMGrwRr-6" target="wzGg7VeKgRd6MsMGrwRr-17">
          <mxGeometry relative="1" as="geometry" />
        </mxCell>
        <mxCell id="wzGg7VeKgRd6MsMGrwRr-6" value="Fibonacci(4)" style="rounded=1;whiteSpace=wrap;html=1;" vertex="1" parent="1">
          <mxGeometry x="280" y="280" width="120" height="60" as="geometry" />
        </mxCell>
        <mxCell id="wzGg7VeKgRd6MsMGrwRr-10" style="edgeStyle=orthogonalEdgeStyle;rounded=0;orthogonalLoop=1;jettySize=auto;html=1;exitX=1;exitY=0.5;exitDx=0;exitDy=0;entryX=0.5;entryY=0;entryDx=0;entryDy=0;" edge="1" parent="1" source="wzGg7VeKgRd6MsMGrwRr-12" target="wzGg7VeKgRd6MsMGrwRr-14">
          <mxGeometry relative="1" as="geometry" />
        </mxCell>
        <mxCell id="wzGg7VeKgRd6MsMGrwRr-11" style="edgeStyle=orthogonalEdgeStyle;rounded=0;orthogonalLoop=1;jettySize=auto;html=1;exitX=0;exitY=0.5;exitDx=0;exitDy=0;" edge="1" parent="1" source="wzGg7VeKgRd6MsMGrwRr-12" target="wzGg7VeKgRd6MsMGrwRr-13">
          <mxGeometry relative="1" as="geometry" />
        </mxCell>
        <mxCell id="wzGg7VeKgRd6MsMGrwRr-12" value="Fibonacci(4)" style="rounded=1;whiteSpace=wrap;html=1;" vertex="1" parent="1">
          <mxGeometry x="-110" y="380" width="120" height="60" as="geometry" />
        </mxCell>
        <mxCell id="wzGg7VeKgRd6MsMGrwRr-13" value="Fibonacci(3)" style="rounded=1;whiteSpace=wrap;html=1;" vertex="1" parent="1">
          <mxGeometry x="-240" y="500" width="120" height="60" as="geometry" />
        </mxCell>
        <mxCell id="wzGg7VeKgRd6MsMGrwRr-14" value="Fibonacci(2)" style="rounded=1;whiteSpace=wrap;html=1;" vertex="1" parent="1">
          <mxGeometry x="20" y="500" width="120" height="60" as="geometry" />
        </mxCell>
        <mxCell id="wzGg7VeKgRd6MsMGrwRr-15" style="edgeStyle=orthogonalEdgeStyle;rounded=0;orthogonalLoop=1;jettySize=auto;html=1;exitX=1;exitY=0.5;exitDx=0;exitDy=0;entryX=0.5;entryY=0;entryDx=0;entryDy=0;" edge="1" parent="1" source="wzGg7VeKgRd6MsMGrwRr-17" target="wzGg7VeKgRd6MsMGrwRr-19">
          <mxGeometry relative="1" as="geometry" />
        </mxCell>
        <mxCell id="wzGg7VeKgRd6MsMGrwRr-16" style="edgeStyle=orthogonalEdgeStyle;rounded=0;orthogonalLoop=1;jettySize=auto;html=1;exitX=0;exitY=0.5;exitDx=0;exitDy=0;" edge="1" parent="1" source="wzGg7VeKgRd6MsMGrwRr-17" target="wzGg7VeKgRd6MsMGrwRr-18">
          <mxGeometry relative="1" as="geometry" />
        </mxCell>
        <mxCell id="wzGg7VeKgRd6MsMGrwRr-17" value="Fibonacci(3)" style="rounded=1;whiteSpace=wrap;html=1;" vertex="1" parent="1">
          <mxGeometry x="370" y="380" width="120" height="60" as="geometry" />
        </mxCell>
        <mxCell id="wzGg7VeKgRd6MsMGrwRr-18" value="Fibonacci(2)" style="rounded=1;whiteSpace=wrap;html=1;" vertex="1" parent="1">
          <mxGeometry x="240" y="500" width="120" height="60" as="geometry" />
        </mxCell>
        <mxCell id="wzGg7VeKgRd6MsMGrwRr-19" value="Fibonacci(1)" style="rounded=1;whiteSpace=wrap;html=1;" vertex="1" parent="1">
          <mxGeometry x="500" y="500" width="120" height="60" as="geometry" />
        </mxCell>
        <mxCell id="wzGg7VeKgRd6MsMGrwRr-34" value="Fibonacci(6)" style="rounded=1;whiteSpace=wrap;html=1;" vertex="1" parent="1">
          <mxGeometry x="-295" y="630" width="120" height="60" as="geometry" />
        </mxCell>
        <mxCell id="wzGg7VeKgRd6MsMGrwRr-35" value="Fibonacci(5)" style="rounded=1;whiteSpace=wrap;html=1;" vertex="1" parent="1">
          <mxGeometry x="-425" y="750" width="120" height="60" as="geometry" />
        </mxCell>
        <mxCell id="wzGg7VeKgRd6MsMGrwRr-36" value="Fibonacci(4)" style="rounded=1;whiteSpace=wrap;html=1;" vertex="1" parent="1">
          <mxGeometry x="-150" y="730" width="120" height="60" as="geometry" />
        </mxCell>
      </root>
    </mxGraphModel>
  </diagram>
</mxfile>
